<svg xmlns="http://www.w3.org/2000/svg" viewBox="0 0 100 100" width="48" height="48">
  <g fill="none" stroke="#1B4332" stroke-width="2">
    <ellipse cx="50" cy="50" rx="14" ry="38" transform="rotate(0 50 50)"/>
    <ellipse cx="50" cy="50" rx="14" ry="38" transform="rotate(22.5 50 50)"/>
    <ellipse cx="50" cy="50" rx="14" ry="38" transform="rotate(45 50 50)"/>
    <ellipse cx="50" cy="50" rx="14" ry="38" transform="rotate(67.5 50 50)"/>
    <ellipse cx="50" cy="50" rx="14" ry="38" transform="rotate(90 50 50)"/>
    <ellipse cx="50" cy="50" rx="14" ry="38" transform="rotate(112.5 50 50)"/>
    <ellipse cx="50" cy="50" rx="14" ry="38" transform="rotate(135 50 50)"/>
    <ellipse cx="50" cy="50" rx="14" ry="38" transform="rotate(157.5 50 50)"/>
  </g>
  <!-- Dots at petal tips -->
  <g fill="#1B4332">
    <circle cx="50" cy="12" r="3.5"/>
    <circle cx="64.5" cy="14.5" r="3.5" transform="rotate(22.5 50 50)"/>
    <circle cx="50" cy="12" r="3.5" transform="rotate(45 50 50)"/>
    <circle cx="50" cy="12" r="3.5" transform="rotate(67.5 50 50)"/>
    <circle cx="50" cy="12" r="3.5" transform="rotate(90 50 50)"/>
    <circle cx="50" cy="12" r="3.5" transform="rotate(112.5 50 50)"/>
    <circle cx="50" cy="12" r="3.5" transform="rotate(135 50 50)"/>
    <circle cx="50" cy="12" r="3.5" transform="rotate(157.5 50 50)"/>
    <!-- Bottom tips -->
    <circle cx="50" cy="88" r="3.5"/>
    <circle cx="50" cy="88" r="3.5" transform="rotate(22.5 50 50)"/>
    <circle cx="50" cy="88" r="3.5" transform="rotate(45 50 50)"/>
    <circle cx="50" cy="88" r="3.5" transform="rotate(67.5 50 50)"/>
    <circle cx="50" cy="88" r="3.5" transform="rotate(90 50 50)"/>
    <circle cx="50" cy="88" r="3.5" transform="rotate(112.5 50 50)"/>
    <circle cx="50" cy="88" r="3.5" transform="rotate(135 50 50)"/>
    <circle cx="50" cy="88" r="3.5" transform="rotate(157.5 50 50)"/>
  </g>
  <!-- Center circle -->
  <circle cx="50" cy="50" r="9" fill="#1B4332"/>
</svg>
